<mxfile host="65bd71144e">
    <diagram id="Qbd1fkisJHu_9eD8CegU" name="Page-1">
        <mxGraphModel dx="1155" dy="609" grid="1" gridSize="10" guides="1" tooltips="1" connect="1" arrows="1" fold="1" page="1" pageScale="1" pageWidth="827" pageHeight="1169" math="0" shadow="0">
            <root>
                <mxCell id="0"/>
                <mxCell id="1" parent="0"/>
                <mxCell id="11" style="edgeStyle=none;html=1;" parent="1" source="2" target="9" edge="1">
                    <mxGeometry relative="1" as="geometry"/>
                </mxCell>
                <mxCell id="2" value="ByteCode" style="shape=document;whiteSpace=wrap;html=1;boundedLbl=1;flipH=0;strokeWidth=2;" parent="1" vertex="1">
                    <mxGeometry x="380" y="130" width="120" height="80" as="geometry"/>
                </mxCell>
                <mxCell id="7" style="edgeStyle=none;html=1;entryX=0;entryY=0.5;entryDx=0;entryDy=0;" parent="1" source="3" target="2" edge="1">
                    <mxGeometry relative="1" as="geometry"/>
                </mxCell>
                <mxCell id="3" value="" style="sketch=0;outlineConnect=0;fontColor=#232F3E;gradientColor=none;fillColor=#232F3D;strokeColor=none;dashed=0;verticalLabelPosition=bottom;verticalAlign=top;align=center;html=1;fontSize=12;fontStyle=0;aspect=fixed;pointerEvents=1;shape=mxgraph.aws4.gear;flipH=0;" parent="1" vertex="1">
                    <mxGeometry x="270" y="131" width="78" height="78" as="geometry"/>
                </mxCell>
                <mxCell id="6" style="edgeStyle=none;html=1;" parent="1" source="5" target="3" edge="1">
                    <mxGeometry relative="1" as="geometry"/>
                </mxCell>
                <mxCell id="5" value="Code" style="shape=document;whiteSpace=wrap;html=1;boundedLbl=1;flipH=0;strokeWidth=2;" parent="1" vertex="1">
                    <mxGeometry x="110" y="129" width="120" height="80" as="geometry"/>
                </mxCell>
                <mxCell id="8" value="javac" style="text;html=1;strokeColor=none;fillColor=none;align=center;verticalAlign=middle;whiteSpace=wrap;rounded=0;strokeWidth=2;" parent="1" vertex="1">
                    <mxGeometry x="279" y="220" width="60" height="30" as="geometry"/>
                </mxCell>
                <mxCell id="12" style="edgeStyle=none;html=1;entryX=0;entryY=0.5;entryDx=0;entryDy=0;" parent="1" source="9" target="10" edge="1">
                    <mxGeometry relative="1" as="geometry"/>
                </mxCell>
                <mxCell id="9" value="java" style="text;html=1;strokeColor=none;fillColor=none;align=center;verticalAlign=middle;whiteSpace=wrap;rounded=0;strokeWidth=2;" parent="1" vertex="1">
                    <mxGeometry x="540" y="154" width="60" height="30" as="geometry"/>
                </mxCell>
                <mxCell id="10" value="Application" style="swimlane;whiteSpace=wrap;html=1;strokeWidth=2;" parent="1" vertex="1">
                    <mxGeometry x="630" y="125" width="90" height="90" as="geometry"/>
                </mxCell>
            </root>
        </mxGraphModel>
    </diagram>
</mxfile>